<?xml version="1.0" standalone="no"?>
<!DOCTYPE svg PUBLIC "-//W3C//DTD SVG 20010904//EN"
 "http://www.w3.org/TR/2001/REC-SVG-20010904/DTD/svg10.dtd">
<svg version="1.0" xmlns="http://www.w3.org/2000/svg"
 width="894.000000pt" height="894.000000pt" viewBox="0 0 894.000000 894.000000"
 preserveAspectRatio="xMidYMid meet">
<metadata>
Created by potrace 1.14, written by Peter Selinger 2001-2017
</metadata>
<g transform="translate(0.000000,894.000000) scale(0.100000,-0.100000)"
fill="#000000" stroke="none">
<path d="M4855 5880 c-31 -12 -44 -32 -60 -91 -7 -30 -39 -148 -70 -264 -31
-115 -70 -262 -86 -325 -17 -63 -38 -144 -48 -180 -25 -92 -13 -123 55 -136
51 -10 60 12 165 401 150 563 144 533 129 560 -10 18 -52 48 -63 44 -1 0 -11
-4 -22 -9z"/>
<path d="M3395 5814 c-28 -26 -30 -41 -14 -78 16 -34 48 -43 148 -42 77 2 85
4 106 28 27 31 24 60 -8 96 -19 21 -29 23 -114 21 -82 -1 -96 -4 -118 -25z"/>
<path d="M4193 5607 c-199 -198 -203 -203 -194 -233 6 -21 72 -93 202 -222
212 -209 225 -217 275 -167 17 17 23 32 20 51 -6 33 -6 33 -178 202 l-147 145
142 142 c176 175 177 177 183 209 3 19 -2 33 -20 51 -50 50 -62 43 -283 -178z"/>
<path d="M5070 5803 c-24 -10 -39 -36 -40 -68 0 -25 24 -54 160 -190 l161
-161 -156 -155 c-86 -85 -158 -164 -162 -176 -13 -56 29 -102 81 -89 15 4 107
86 218 196 176 173 192 192 192 224 0 31 -14 48 -145 178 -262 258 -263 259
-309 241z"/>
<path d="M3422 5578 c-28 -7 -52 -42 -52 -74 0 -8 11 -26 25 -39 24 -25 25
-25 220 -25 195 0 196 0 220 25 31 30 32 56 2 91 l-23 27 -182 1 c-100 1 -195
-2 -210 -6z"/>
<path d="M3412 5320 c-49 -20 -49 -105 1 -127 12 -5 61 -9 109 -8 101 1 128
16 128 71 0 54 -36 74 -134 73 -44 0 -91 -4 -104 -9z"/>
<path d="M3420 5068 c-23 -8 -50 -47 -50 -71 0 -10 11 -29 25 -42 24 -25 25
-25 218 -25 175 0 197 2 218 19 32 25 33 73 4 101 -23 21 -33 22 -210 24 -102
0 -194 -2 -205 -6z"/>
<path d="M5849 4500 c-1 -21 -1 -120 0 -150 l1 -25 1425 0 1425 0 0 95 0 95
-1425 0 c-1264 0 -1425 -2 -1426 -15z"/>
<path d="M202 4400 l3 -95 1410 0 c776 -1 1417 1 1425 3 15 3 15 8 11 157 l-1
30 -1425 0 -1426 0 3 -95z"/>
<path d="M1870 3365 l0 -255 43 0 44 0 0 68 c1 94 1 92 21 92 10 0 37 -32 70
-80 l52 -80 45 0 c25 0 45 3 45 6 0 3 -29 48 -65 100 l-65 95 42 47 c23 26 53
59 67 75 l25 27 -50 0 c-50 0 -51 -1 -104 -65 -30 -36 -60 -65 -67 -65 -15 0
-15 -4 -15 163 l-1 127 -44 0 -43 0 0 -255z"/>
<path d="M2904 3595 c-28 -43 9 -95 59 -79 41 13 51 59 19 87 -27 24 -59 21
-78 -8z"/>
<path d="M3650 3365 l0 -255 43 0 44 0 1 70 c1 94 0 90 20 90 10 0 37 -32 70
-80 l52 -80 45 0 c25 0 45 3 45 6 0 3 -29 48 -65 99 l-65 94 66 76 65 75 -48
0 c-34 0 -53 -5 -63 -17 -8 -10 -33 -40 -54 -66 -63 -77 -70 -66 -69 101 l1
142 -44 0 -44 0 0 -255z"/>
<path d="M4719 3608 c-1 -7 -2 -122 -3 -255 l-1 -243 43 0 c48 0 44 -15 44
157 l0 101 33 16 c43 21 57 20 83 -4 20 -19 22 -30 22 -146 l0 -125 43 3 42 3
-1 131 c-1 118 -3 135 -23 168 -33 53 -111 67 -168 30 -12 -8 -24 -14 -27 -14
-2 0 -4 30 -4 68 0 131 3 122 -42 122 -25 0 -40 -5 -41 -12z"/>
<path d="M6222 3534 c0 -91 -4 -103 -25 -86 -13 11 -49 16 -95 13 -32 -2 -91
-60 -106 -106 -28 -80 2 -205 56 -233 22 -12 51 -16 95 -13 12 0 35 12 52 26
l30 26 3 -23 c2 -19 10 -24 41 -26 l37 -3 0 255 0 256 -44 0 -43 0 -1 -86z
m-27 -146 c22 -10 25 -17 26 -67 2 -87 -1 -105 -21 -125 -20 -21 -65 -28 -92
-14 -25 12 -42 78 -34 132 11 71 61 102 121 74z"/>
<path d="M2304 3453 c-21 -8 -47 -22 -57 -32 -17 -17 -17 -19 -2 -35 19 -18
46 -21 61 -6 13 13 78 20 93 11 6 -4 16 -22 21 -40 10 -36 9 -37 -62 -45 -92
-10 -149 -56 -142 -116 10 -78 95 -107 181 -63 40 21 41 21 46 2 4 -14 14 -19
36 -19 l31 0 0 120 c0 138 -14 186 -61 214 -38 23 -95 26 -145 9z m121 -226
c1 -31 -26 -54 -71 -60 -36 -5 -54 8 -54 40 0 29 48 54 95 50 25 -2 30 -6 30
-30z"/>
<path d="M3225 3462 c-10 -2 -30 -11 -42 -20 -22 -13 -25 -13 -36 2 -9 12 -23
17 -42 14 l-29 -3 0 -170 0 -170 42 -3 c38 -3 42 -1 43 20 0 13 1 72 1 131 l0
108 29 14 c37 20 52 19 72 -3 14 -15 17 -41 17 -145 l0 -127 43 0 43 0 1 127
c0 119 2 128 23 145 27 22 49 23 75 4 17 -12 20 -29 21 -137 1 -68 3 -127 3
-131 1 -5 19 -8 41 -8 l40 0 0 129 c0 184 -18 218 -120 226 -29 2 -96 -29
-103 -47 -3 -9 -13 -4 -30 15 -14 15 -30 27 -34 28 -4 0 -15 2 -23 3 -8 1 -24
0 -35 -2z"/>
<path d="M4085 3453 c-62 -21 -79 -37 -65 -62 12 -23 31 -26 59 -11 63 33 121
14 121 -42 0 -23 -4 -28 -25 -28 -55 0 -126 -23 -155 -50 -32 -30 -38 -62 -19
-103 26 -58 134 -69 191 -20 14 13 18 12 28 -7 8 -15 19 -20 38 -18 l27 3 0
131 c-1 107 -4 136 -18 157 -37 57 -106 76 -182 50z m117 -223 c6 -42 -36 -68
-103 -62 -45 5 -27 66 24 81 60 17 74 14 79 -19z"/>
<path d="M5188 3460 c-38 -11 -88 -42 -88 -56 0 -6 7 -17 16 -25 13 -10 23
-10 62 4 26 10 53 17 60 17 20 0 52 -38 52 -64 0 -21 -5 -24 -53 -28 -107 -9
-166 -60 -153 -132 13 -70 105 -93 183 -45 31 20 31 20 38 -1 4 -14 15 -20 36
-20 33 0 32 -9 31 152 -1 115 -13 155 -55 183 -27 17 -91 25 -129 15z m102
-229 c0 -30 -40 -69 -67 -65 -7 1 -22 2 -32 3 -22 1 -34 26 -26 51 6 19 53 37
98 39 23 1 27 -3 27 -28z"/>
<path d="M5600 3458 c-19 -5 -42 -16 -52 -25 -14 -13 -17 -12 -23 6 -5 16 -15
21 -41 21 l-34 0 0 -175 0 -175 44 0 43 0 0 124 c0 68 3 128 7 134 3 6 22 16
42 22 29 10 39 9 59 -4 27 -18 27 -15 27 -173 l1 -103 43 0 44 0 0 125 c0 86
-5 136 -14 160 -24 57 -79 81 -146 63z"/>
<path d="M6474 3451 c-48 -22 -80 -60 -94 -111 -22 -80 16 -182 79 -214 63
-33 170 -22 212 21 16 16 16 20 3 38 -13 18 -17 18 -47 5 -17 -7 -51 -14 -74
-14 -50 -1 -79 23 -89 70 l-6 32 112 1 c62 0 115 3 118 6 12 12 3 76 -15 107
-37 64 -128 91 -199 59z m135 -87 c6 -14 11 -27 11 -29 0 -3 -36 -5 -80 -5
-44 0 -80 4 -80 9 0 18 41 60 63 63 35 6 73 -11 86 -38z"/>
<path d="M2570 3426 l0 -33 84 1 c57 1 83 -2 79 -9 -4 -5 -42 -56 -85 -112
-43 -56 -81 -115 -84 -132 l-6 -31 136 0 c83 0 136 4 137 10 1 6 2 17 2 25 0
8 -1 19 -2 23 0 5 -37 8 -81 8 -51 -1 -79 2 -76 9 2 5 40 59 85 118 50 67 81
117 81 132 l0 25 -135 0 -135 0 0 -34z"/>
<path d="M2904 3285 l0 -175 43 0 43 0 0 175 0 175 -43 0 -42 0 -1 -175z"/>
<path d="M4320 3457 c0 -3 31 -78 70 -166 l70 -162 -30 -59 c-17 -33 -30 -64
-30 -70 0 -14 66 -12 78 3 11 14 192 436 192 449 0 4 -18 8 -39 8 l-40 0 -42
-110 c-38 -98 -59 -133 -59 -97 0 6 -18 55 -39 107 l-40 95 -45 3 c-25 2 -46
1 -46 -1z"/>
<path d="M6710 3458 c0 -2 31 -79 69 -173 l69 -170 40 -3 40 -3 27 68 c15 37
33 84 40 103 8 19 27 68 43 108 l30 72 -43 0 -43 0 -30 -79 c-17 -44 -36 -98
-43 -120 -7 -23 -15 -41 -18 -41 -4 0 -14 24 -24 53 -10 28 -30 82 -44 120
l-25 67 -44 0 c-24 0 -44 -1 -44 -2z"/>
<path d="M5846 3194 c-17 -16 -21 -51 -8 -70 12 -19 50 -22 71 -7 38 26 17 93
-29 93 -10 0 -26 -7 -34 -16z"/>
</g>
</svg>
